<svg width="57" height="14" viewBox="0 0 57 14" fill="none" xmlns="http://www.w3.org/2000/svg">
<path d="M15.9497 5.44629C15.9497 6.10189 15.8229 6.72038 15.5693 7.30176C15.3219 7.87695 14.9818 8.38102 14.5488 8.81396C14.1221 9.24072 13.6211 9.5778 13.0459 9.8252C12.4707 10.0726 11.8553 10.1963 11.1997 10.1963H3.56445V8.32227H11.1997C11.5955 8.32227 11.9666 8.24805 12.313 8.09961C12.6593 7.94499 12.9593 7.73779 13.2129 7.47803C13.4727 7.21826 13.6768 6.9152 13.8252 6.56885C13.9736 6.21631 14.0479 5.84212 14.0479 5.44629C14.0479 5.05046 13.9736 4.67936 13.8252 4.33301C13.6768 3.98665 13.4727 3.68669 13.2129 3.43311C12.9593 3.17334 12.6593 2.96924 12.313 2.8208C11.9666 2.67236 11.5955 2.59814 11.1997 2.59814H2.49756V14H0.595703V0.696289H11.1997C11.8553 0.696289 12.4707 0.823079 13.0459 1.07666C13.6211 1.32406 14.1221 1.66423 14.5488 2.09717C14.9818 2.52393 15.3219 3.0249 15.5693 3.6001C15.8229 4.17529 15.9497 4.79069 15.9497 5.44629ZM29.5781 14H27.6763V11.1333H20.3564V9.19434H27.6763V5.42773H22.7314C22.2676 5.42773 21.8315 5.51742 21.4233 5.69678C21.0151 5.86995 20.6595 6.10807 20.3564 6.41113C20.0534 6.71419 19.8122 7.06982 19.6328 7.47803C19.4596 7.88005 19.373 8.31299 19.373 8.77686V14H17.4526V8.77686C17.4526 8.04704 17.5918 7.36361 17.8701 6.72656C18.1484 6.08952 18.5257 5.53288 19.002 5.05664C19.4782 4.5804 20.0379 4.20622 20.6812 3.93408C21.3244 3.65576 22.0078 3.5166 22.7314 3.5166H29.5781V14ZM43.3179 14H36.5732C35.8372 14 35.1693 13.8639 34.5693 13.5918C33.9694 13.3197 33.4561 12.9486 33.0293 12.4785C32.6025 12.0023 32.2716 11.4456 32.0366 10.8086C31.8078 10.1654 31.6934 9.47575 31.6934 8.73975C31.6934 8.00993 31.8078 7.32959 32.0366 6.69873C32.2716 6.06169 32.6025 5.50814 33.0293 5.03809C33.4561 4.56803 33.9694 4.19694 34.5693 3.9248C35.1693 3.65267 35.8372 3.5166 36.5732 3.5166H43.3179V5.42773H36.5732C36.1156 5.42773 35.7012 5.51432 35.3301 5.6875C34.9652 5.86068 34.6559 6.0957 34.4023 6.39258C34.1488 6.68945 33.9539 7.0389 33.8179 7.44092C33.6818 7.84294 33.6138 8.27588 33.6138 8.73975C33.6138 9.2098 33.6818 9.64893 33.8179 10.0571C33.9539 10.4591 34.1488 10.8117 34.4023 11.1147C34.6559 11.4116 34.9652 11.6466 35.3301 11.8198C35.7012 11.993 36.1156 12.0796 36.5732 12.0796H41.3975V9.66748H35.9517V7.74707H43.3179V14ZM56.6401 14H45.73V3.5166H56.6401V5.42773H47.6504V12.0796H56.6401V14ZM55.4248 9.66748H48.5503V7.74707H55.4248V9.66748Z" fill="#578632"/>
</svg>
